<?xml version="1.0" standalone="no"?>
<!DOCTYPE svg PUBLIC "-//W3C//DTD SVG 20010904//EN"
 "http://www.w3.org/TR/2001/REC-SVG-20010904/DTD/svg10.dtd">
<svg version="1.0" xmlns="http://www.w3.org/2000/svg"
 width="842.000000pt" height="843.000000pt" viewBox="0 0 842.000000 843.000000"
 preserveAspectRatio="xMidYMid meet">
<metadata>
Created by potrace 1.11, written by Peter Selinger 2001-2013
</metadata>
<g transform="translate(0.000000,843.000000) scale(0.100000,-0.100000)"
fill="#000000" stroke="none">
<path d="M0 4210 l0 -4210 4210 0 4210 0 0 4210 0 4210 -4210 0 -4210 0 0
-4210z m6255 2656 l1810 -883 3 -2481 2 -2481 -37 -10 c-21 -5 -189 -44 -373
-86 l-334 -76 -161 35 c-88 20 -163 36 -167 36 -5 0 -8 -74 -8 -164 0 -91 -4
-167 -9 -170 -5 -3 -174 -43 -375 -89 l-366 -84 -2005 442 c-1103 244 -2008
444 -2010 446 -2 2 155 58 348 124 l352 121 3 2992 2 2992 185 -92 185 -93 0
-2802 c0 -1542 2 -2803 5 -2803 2 0 164 55 360 121 l355 122 0 2988 0 2988
213 -104 c116 -58 1027 -503 2022 -989z m-5327 725 l202 -142 0 -2855 c0
-1571 -4 -2854 -8 -2852 -5 2 -164 56 -355 122 l-347 118 0 2984 0 2984 153
-108 c83 -59 243 -172 355 -251z m933 -327 l349 -246 0 -2854 c0 -1570 -2
-2854 -3 -2854 -4 0 -553 188 -664 227 l-43 15 0 2979 c0 1638 3 2979 6 2979
3 0 163 -111 355 -246z"/>
</g>
</svg>
